<?xml version="1.0" standalone="no"?><!DOCTYPE svg PUBLIC "-//W3C//DTD SVG 1.1//EN" "http://www.w3.org/Graphics/SVG/1.1/DTD/svg11.dtd"><svg t="1565229680460" class="icon" viewBox="0 0 1024 1024" version="1.1" xmlns="http://www.w3.org/2000/svg" p-id="2594" xmlns:xlink="http://www.w3.org/1999/xlink" width="200" height="200"><defs><style type="text/css"></style></defs><path d="M938.666667 362.666667H85.333333a42.666667 42.666667 0 0 1 0-85.333334h853.333334a42.666667 42.666667 0 0 1 0 85.333334z" fill="#4E4E4E" p-id="2595"></path><path d="M810.666667 362.666667H213.333333v-42.666667A277.333333 277.333333 0 0 1 490.666667 42.666667h42.666666a277.333333 277.333333 0 0 1 277.333334 277.333333z m-507.306667-85.333334h417.28A192 192 0 0 0 533.333333 128h-42.666666a192 192 0 0 0-187.306667 149.333333z" fill="#4E4E4E" p-id="2596"></path><path d="M768 981.333333H256a128 128 0 0 1-128-128V277.333333h768v576a128 128 0 0 1-128 128zM213.333333 362.666667v490.666666a42.666667 42.666667 0 0 0 42.666667 42.666667h512a42.666667 42.666667 0 0 0 42.666667-42.666667V362.666667z" fill="#4E4E4E" p-id="2597"></path><path d="M373.333333 810.666667a42.666667 42.666667 0 0 1-42.666666-42.666667V490.666667a42.666667 42.666667 0 0 1 85.333333 0v277.333333a42.666667 42.666667 0 0 1-42.666667 42.666667zM650.666667 810.666667a42.666667 42.666667 0 0 1-42.666667-42.666667V490.666667a42.666667 42.666667 0 0 1 85.333333 0v277.333333a42.666667 42.666667 0 0 1-42.666666 42.666667z" fill="#FF9813" p-id="2598"></path></svg>