<?xml version="1.0" standalone="no"?><!DOCTYPE svg PUBLIC "-//W3C//DTD SVG 1.1//EN" "http://www.w3.org/Graphics/SVG/1.1/DTD/svg11.dtd"><svg t="1565229542168" class="icon" viewBox="0 0 1024 1024" version="1.1" xmlns="http://www.w3.org/2000/svg" p-id="1638" xmlns:xlink="http://www.w3.org/1999/xlink" width="200" height="200"><defs><style type="text/css"></style></defs><path d="M554.666667 853.333333C330.666667 853.333333 149.333333 672 149.333333 448S330.666667 42.666667 554.666667 42.666667s405.333333 181.333333 405.333333 405.333333-181.333333 405.333333-405.333333 405.333333z m0-725.333333c-177.066667 0-320 142.933333-320 320s142.933333 320 320 320 320-142.933333 320-320S731.733333 128 554.666667 128z" fill="#4E4E4E" p-id="1639"></path><path d="M349.866667 435.2c-4.266667 0-8.533333 0-12.8-2.133333-23.466667-6.4-34.133333-32-27.733334-53.333334 21.333333-68.266667 68.266667-125.866667 132.266667-157.866666 21.333333-10.666667 46.933333-2.133333 57.6 19.2s2.133333 44.8-17.066667 55.466666c-42.666667 23.466667-76.8 61.866667-89.6 108.8-8.533333 17.066667-25.6 29.866667-42.666666 29.866667z" fill="#FF9813" p-id="1640"></path><path d="M85.333333 960c-23.466667 0-42.666667-19.2-42.666666-42.666667 0-10.666667 4.266667-21.333333 12.8-29.866666l213.333333-213.333334c17.066667-14.933333 44.8-12.8 59.733333 4.266667 12.8 14.933333 12.8 40.533333 0 55.466667l-213.333333 213.333333c-8.533333 8.533333-19.2 12.8-29.866667 12.8z" fill="#4E4E4E" p-id="1641"></path></svg>