<?xml version="1.0" standalone="no"?><!DOCTYPE svg PUBLIC "-//W3C//DTD SVG 1.1//EN" "http://www.w3.org/Graphics/SVG/1.1/DTD/svg11.dtd"><svg t="1565231641097" class="icon" viewBox="0 0 1024 1024" version="1.1" xmlns="http://www.w3.org/2000/svg" p-id="3005" xmlns:xlink="http://www.w3.org/1999/xlink" width="200" height="200"><defs><style type="text/css"></style></defs><path d="M896 576h-85.333333v-128c0-164.266667-134.4-298.666667-298.666667-298.666667s-298.666667 134.4-298.666667 298.666667v128H128v-128c0-211.2 172.8-384 384-384s384 172.8 384 384v128z" fill="#4E4E4E" p-id="3006"></path><path d="M170.666667 938.666667c-70.4 0-128-57.6-128-128v-128c0-70.4 57.6-128 128-128s128 57.6 128 128v128c0 70.4-57.6 128-128 128z m0-298.666667c-23.466667 0-42.666667 19.2-42.666667 42.666667v128c0 23.466667 19.2 42.666667 42.666667 42.666666s42.666667-19.2 42.666666-42.666666v-128c0-23.466667-19.2-42.666667-42.666666-42.666667zM853.333333 938.666667c-70.4 0-128-57.6-128-128v-128c0-70.4 57.6-128 128-128s128 57.6 128 128v128c0 70.4-57.6 128-128 128z m0-298.666667c-23.466667 0-42.666667 19.2-42.666666 42.666667v128c0 23.466667 19.2 42.666667 42.666666 42.666666s42.666667-19.2 42.666667-42.666666v-128c0-23.466667-19.2-42.666667-42.666667-42.666667z" fill="#4E4E4E" p-id="3007"></path><path d="M448 853.333333m-64 0a64 64 0 1 0 128 0 64 64 0 1 0-128 0Z" fill="#FF9813" p-id="3008"></path></svg>