<?xml version="1.0" standalone="no"?><!DOCTYPE svg PUBLIC "-//W3C//DTD SVG 1.1//EN" "http://www.w3.org/Graphics/SVG/1.1/DTD/svg11.dtd"><svg t="1565229605894" class="icon" viewBox="0 0 1024 1024" version="1.1" xmlns="http://www.w3.org/2000/svg" p-id="2184" xmlns:xlink="http://www.w3.org/1999/xlink" width="200" height="200"><defs><style type="text/css"></style></defs><path d="M405.333333 661.333333a42.666667 42.666667 0 0 1-30.08-72.746666l512-512a42.666667 42.666667 0 0 1 60.16 60.16l-512 512A42.666667 42.666667 0 0 1 405.333333 661.333333z" fill="#FF9813" p-id="2185"></path><path d="M794.453333 782.293333a61.44 61.44 0 0 1-21.333333-3.626666L59.52 528a64 64 0 0 1-3.413333-119.466667L885.333333 61.44a64 64 0 0 1 87.68 71.04l-115.84 597.333333a64 64 0 0 1-62.72 51.84z m-21.333333-68.053333zM140.16 465.92l638.08 224 103.466667-534.4z" fill="#4E4E4E" p-id="2186"></path><path d="M426.666667 887.253333a66.986667 66.986667 0 0 1-24.533334-4.906666A64 64 0 0 1 362.666667 823.253333V640a42.666667 42.666667 0 0 1 85.333333 0v131.626667l119.253333-119.04a42.666667 42.666667 0 0 1 60.16 60.16l-155.52 155.733333a64 64 0 0 1-45.226666 18.773333z" fill="#4E4E4E" p-id="2187"></path></svg>