<?xml version="1.0" standalone="no"?><!DOCTYPE svg PUBLIC "-//W3C//DTD SVG 1.1//EN" "http://www.w3.org/Graphics/SVG/1.1/DTD/svg11.dtd"><svg t="1565229595843" class="icon" viewBox="0 0 1024 1024" version="1.1" xmlns="http://www.w3.org/2000/svg" p-id="2048" xmlns:xlink="http://www.w3.org/1999/xlink" width="200" height="200"><defs><style type="text/css"></style></defs><path d="M853.333333 981.333333H170.666667c-70.4 0-128-57.6-128-128V170.666667c0-70.4 57.6-128 128-128h682.666666c70.4 0 128 57.6 128 128v682.666666c0 70.4-57.6 128-128 128zM170.666667 128c-23.466667 0-42.666667 19.2-42.666667 42.666667v682.666666c0 23.466667 19.2 42.666667 42.666667 42.666667h682.666666c23.466667 0 42.666667-19.2 42.666667-42.666667V170.666667c0-23.466667-19.2-42.666667-42.666667-42.666667H170.666667z" fill="#4E4E4E" p-id="2049"></path><path d="M352 768c-23.466667 0-42.666667-19.2-42.666667-42.666667V298.666667c0-23.466667 19.2-42.666667 42.666667-42.666667s42.666667 19.2 42.666667 42.666667v426.666666c0 23.466667-19.2 42.666667-42.666667 42.666667zM672 768c-23.466667 0-42.666667-19.2-42.666667-42.666667V298.666667c0-23.466667 19.2-42.666667 42.666667-42.666667s42.666667 19.2 42.666667 42.666667v426.666666c0 23.466667-19.2 42.666667-42.666667 42.666667z" fill="#FF9813" p-id="2050"></path></svg>