<?xml version="1.0" standalone="no"?><!DOCTYPE svg PUBLIC "-//W3C//DTD SVG 1.1//EN" "http://www.w3.org/Graphics/SVG/1.1/DTD/svg11.dtd"><svg t="1565231661806" class="icon" viewBox="0 0 1024 1024" version="1.1" xmlns="http://www.w3.org/2000/svg" p-id="3142" xmlns:xlink="http://www.w3.org/1999/xlink" width="200" height="200"><defs><style type="text/css"></style></defs><path d="M512 661.333333a213.333333 213.333333 0 0 1-213.333333-213.333333v-192a213.333333 213.333333 0 0 1 426.666666 0v192a213.333333 213.333333 0 0 1-213.333333 213.333333z m0-533.333333a128 128 0 0 0-128 128v192a128 128 0 0 0 256 0v-192a128 128 0 0 0-128-128z" fill="#4E4E4E" p-id="3143"></path><path d="M512 448m-64 0a64 64 0 1 0 128 0 64 64 0 1 0-128 0Z" fill="#FF9813" p-id="3144"></path><path d="M512 810.666667A341.333333 341.333333 0 0 1 170.666667 469.333333v-42.666666a42.666667 42.666667 0 0 1 85.333333 0v42.666666a256 256 0 0 0 512 0v-42.666666a42.666667 42.666667 0 0 1 85.333333 0v42.666666a341.333333 341.333333 0 0 1-341.333333 341.333334z" fill="#4E4E4E" p-id="3145"></path><path d="M512 981.333333a42.666667 42.666667 0 0 1-42.666667-42.666666v-170.666667a42.666667 42.666667 0 0 1 85.333334 0v170.666667a42.666667 42.666667 0 0 1-42.666667 42.666666z" fill="#4E4E4E" p-id="3146"></path></svg>